{"title":"Bandit Queen 1994 HQ 1080p Blu-ray x264 DTS-HDMA 2.0 ESub -DDR","uid":14690727,"size":10552751813,"categoryP":"video","categoryS":"handheld","magnet":"?xt=urn:btih:227182c8ad9d84222ffc4bce85d33abec5daad3b&amp;dn=Bandit+Queen+1994+HQ+1080p+Blu-ray+x264+DTS-HDMA+2.0+ESub+-DDR&amp;tr=udp%3A%2F%2Ftracker.leechers-paradise.org%3A6969&amp;tr=udp%3A%2F%2Fzer0day.ch%3A1337&amp;tr=udp%3A%2F%2Fopen.demonii.com%3A1337&amp;tr=udp%3A%2F%2Ftracker.coppersurfer.tk%3A6969&amp;tr=udp%3A%2F%2Fexodus.desync.com%3A6969","seeders":0,"leechers":2,"uploader":"SaM","files":3,"time":1464196306,"description":"- HollywooD MoviE -\r\n**- Bandit Queen -**\r\n- 1994 -\r\n** HQ 1080p Blu-Ray / x264 / DTS-HDMA 2.0 **\r\nEnglish subtitle(s)\r\n\r\n~* SCREENSHOTS *~\r\n \nhttp://extraimago.com/image/azY7 \nhttp://extraimago.com/image/azYs \nhttp://extraimago.com/image/azYn \nhttp://extraimago.com/image/azYj \nhttp://extraimago.com/image/azYT \nhttp://extraimago.com/image/azYN \nhttp://extraimago.com/image/azY2 \nhttp://extraimago.com/image/azYw\r\n\r\n\r\n[ Specs ]\r\nGeneral\r\nSource = BD50 @ HDT\r\nFormat : Matroska\r\nFile size : 9.72 GiB\r\nDuration : 1h 59mn\r\nOverall bit rate : 11.6 Mbps\r\n\r\nVideo\r\nFormat : AVC\r\nFormat profile :   \r\nBit rate : 10 000 Kbps\r\nHeight : 1 080 pixels\r\nDisplay aspect ratio : 16:9\r\nFrame rate mode : Constant\r\nFrame rate : 23.976 (24000/1001) fps\r\nBit depth : 8 bits\r\nScan type : Progressive\r\nStream size : 8.35 GiB (86%)\r\nTransfer characteristics : BT.709\r\n\r\nAudio #1\r\nFormat : DTS\r\nFormat/Info : Digital Theater Systems\r\nFormat profile : MA / Core\r\nMode : 16\r\nFormat settings, Endianness : Big\r\nCodec ID : A_DTS\r\nDuration : 1h 59mn\r\nBit rate mode : Variable / Constant\r\nBit rate : 1 635 Kbps / 768 Kbps\r\nChannel(s) : 2 channels\r\nChannel positions : Front: L R\r\nSampling rate : 48.0 KHz\r\nFrame rate : 93.750 fps (512 spf)\r\nBit depth : 24 bits\r\nCompression mode : Lossless / Lossy\r\nStream size : 1.37 GiB (14%)\r\nLanguage : Hindi\r\nDefault : Yes\r\nForced : No\r\n\r\nChapters: YES\r\nSample: YES - included\r\n\r\nA DDR Exclusive Release...!","torrent":{"xt":"urn:btih:227182c8ad9d84222ffc4bce85d33abec5daad3b","amp;dn":"Bandit+Queen+1994+HQ+1080p+Blu-ray+x264+DTS-HDMA+2.0+ESub+-DDR","amp;tr":["udp%3A%2F%2Ftracker.leechers-paradise.org%3A6969","udp%3A%2F%2Fzer0day.ch%3A1337","udp%3A%2F%2Fopen.demonii.com%3A1337","udp%3A%2F%2Ftracker.coppersurfer.tk%3A6969","udp%3A%2F%2Fexodus.desync.com%3A6969"],"infoHash":"227182c8ad9d84222ffc4bce85d33abec5daad3b","infoHashBuffer":{"type":"Buffer","data":[34,113,130,200,173,157,132,34,47,252,75,206,133,211,58,190,197,218,173,59]},"announce":[],"urlList":[]}}